<?xml version="1.0" encoding="utf-8"?>
<!-- Generator: Adobe Illustrator 24.3.0, SVG Export Plug-In . SVG Version: 6.00 Build 0)  -->
<svg version="1.1" id="Capa_1" xmlns="http://www.w3.org/2000/svg" xmlns:xlink="http://www.w3.org/1999/xlink" x="0px" y="0px"
	 viewBox="0 0 52 52" style="enable-background:new 0 0 52 52;" xml:space="preserve">
<style type="text/css">
	.st0{fill:#FFFFFF;}
</style>
<desc>Created with Sketch.</desc>
<path id="Combined-Shape" class="st0" d="M12.2,34.1c0.5,0.4,0.9,0.8,1.2,0.4c0.2,0,0.5,0.2,0.7,0.2c0.4,0.2,0.4,0.8,0.9,0.8
	c0.4,0.8,0.5,1.5,0.7,2.3c-0.2,0.4,0.2,0.8,0.2,1.2l0,0h0.2c0,0.4,0,1-0.2,1.3c0,0.8-0.4,1.5-0.5,2.1c-0.2,0.2-0.4,0.6-0.7,0.6
	c-0.5,0.2-0.5,1.2-1.2,1c-0.7,0.6-1.2,0.4-1.8,0.4c-0.4-0.2-0.7-0.2-0.9-0.4c-0.5-0.2-1.1-0.6-1.4-1.2c-0.2-0.4-0.5-0.6-0.7-1.2
	c0.2-0.6-0.2-1.2,0-1.7l0,0l-0.2-1l0.4-1.7c0.5-0.4,0.4-1.2,0.9-1.3c0.4-1,1.2-1.2,1.8-1.5C11.7,34.3,12.1,34.3,12.2,34.1z
	 M41.6,7.7c0.2,0,0.5,0,0.7,0.4c-0.2,2.7-2.1,4.4-3.2,6.7c-0.5,1.3-1.6,2.1-2.3,3.5c-0.7,0.8-1.4,1.7-2,2.5c0.2,0.6,0.7,0.8,1.1,1.4
	c0.7,0.6,0.9,1.5,1.6,2.1c0.4,0,0.4,0.6,0.9,0.6c0.9,1.2,1.8,2.3,2.5,3.5c0.2,0.4,0.4,0.8,0.7,1.2c0.5,1,1.1,1.9,1.8,3.1
	c0,1.2,0.9,1.9,1.2,2.9c0.4,0.6,0.5,1.2,0.9,1.7c0.5,1.3,0.9,2.7,1.6,3.8c0.2,0.4,0,0.6-0.2,0.8c-0.2,0.2-0.4-0.2-0.7-0.2
	c-1.4-0.6-2.8-1.3-4.1-2.3c-1.4-1.2-2.9-2.1-4.3-3.3c-0.5-0.2-0.7-0.8-1.2-1.2c-1.2-1-2.3-2.1-3.7-2.9c-0.5-0.6-1.2-1-1.8-1.5
	c-0.5,0-0.5-0.6-1.1-0.8c-1.1-0.6-2-1.5-2.8-2.1l0,0v0.6c-0.7,0.8-0.5,1.7-0.9,2.5c0,1.2-0.7,1.9-1.1,2.9c-0.9,1.5-1.6,3.3-2.5,4.8
	c-1.1,1.7-1.8,3.7-3.4,5c-0.4,0.4-0.7,0.8-1.2,1c-0.2,0-0.5,0-0.5-0.2c-0.2-0.4,0-1-0.2-1.3c0.2-0.6,0-1.2,0.2-1.7l0,0v-0.2
	c0-0.8,0.4-1.5,0.2-2.5c0.2-0.6,0.4-1.2,0.4-1.7c0.2-0.8,0.5-1.5,0.5-2.3c0.2-0.4,0.4-1,0.2-1.5c0.2-0.6,0.2-1.2,0.7-1.5l0,0v-1
	c0.5-1.5,1.1-3.1,1.4-4.6l0,0l-0.5-0.4c-1.1-0.2-2.1,0.2-3-0.2c-1.6,0-3.2-0.2-4.8-0.6c-0.5-0.2-1.4,0-2-0.4c-0.4,0-0.7,0-1.1-0.2
	c-0.7-0.4-1.6-0.2-2.3-0.8c-0.5,0-0.9-0.4-1.4-0.4c-0.5,0.2-0.7-0.4-1.1-0.6l0,0v-0.2c0.9-1.3,2.3-1.7,3.6-2.1
	c1.2-0.4,2.7-0.6,3.9-0.8c0.9-0.2,1.8,0.2,2.5,0c1.6,0,3,0.2,4.6,0.2c0.5,0,0.9,0.4,1.4,0.4l0,0v-0.2l-1.4-2.1
	c-0.5-1.3-1.4-2.5-1.8-3.8c-0.4-0.4-0.2-1.2-0.4-1.5c0-0.2,0.2-0.4,0.2-0.6c0.4-0.2,0.7,0,0.9-0.2c0.9,0.2,1.8,0.6,2.7,0.8
	c0.9,0.4,2,0.8,2.7,1.5c1.1,0.8,2.3,1.4,3,2.5c0.2,0.2,0.5,0.2,0.9,0.2c0.2,0,0.4-0.4,0.5-0.4c1.1-0.8,2.3-1.2,3.4-1.9
	c0.4-0.4,1.1-0.6,1.4-1.2c0.4-0.2,0.7-0.4,1.1-0.6c0.5-0.4,1.2-1,2-1.3c0.4,0,0.7-0.2,0.9-0.4c1.1-0.6,2.3-1.2,3.2-1.9
	C40.4,7.7,41.1,7.9,41.6,7.7z M14.7,26.9c0.5,0.2,1.1,0,1.2,0.6c0.4,0.2,0.4,0.8,0.7,1.2l0,0l0.2,1.2l-0.7,1.3
	c-1.1,0.6-2.5,0.8-3.4,0c-0.5-0.6-0.7-1.3-0.5-1.9l0,0l0.4-1.2c0.2-0.2,0.5-0.2,0.7-0.4C13.7,26.9,14.2,27.1,14.7,26.9z"/>
</svg>
