<?xml version="1.0" encoding="UTF-8"?>
<svg xmlns="http://www.w3.org/2000/svg" xmlns:xlink="http://www.w3.org/1999/xlink" width="58pt" height="58pt" viewBox="0 0 58 58" version="1.1">
<g id="surface1">
<rect x="0" y="0" width="58" height="58" style="fill:rgb(0%,49.411765%,68.235294%);fill-opacity:1;stroke:none;"/>
<path style="fill:none;stroke-width:36;stroke-linecap:butt;stroke-linejoin:miter;stroke:rgb(100%,100%,100%);stroke-opacity:1;stroke-miterlimit:10;" d="M -13.413793 348.689655 L 108.482759 266.413793 " transform="matrix(0.113281,0,0,0.113281,0,0)"/>
<path style="fill:none;stroke-width:36;stroke-linecap:butt;stroke-linejoin:miter;stroke:rgb(100%,100%,100%);stroke-opacity:1;stroke-miterlimit:10;" d="M 386.206897 159.896552 L 549.206897 200.103448 " transform="matrix(0.113281,0,0,0.113281,0,0)"/>
<path style="fill:none;stroke-width:36;stroke-linecap:butt;stroke-linejoin:miter;stroke:rgb(100%,100%,100%);stroke-opacity:1;stroke-miterlimit:10;" d="M 141.586207 264.413793 L 233.793103 303.517241 " transform="matrix(0.113281,0,0,0.113281,0,0)"/>
<path style="fill:none;stroke-width:36;stroke-linecap:butt;stroke-linejoin:miter;stroke:rgb(100%,100%,100%);stroke-opacity:1;stroke-miterlimit:10;" d="M 245.103448 307.586207 L 382.689655 159.896552 " transform="matrix(0.113281,0,0,0.113281,0,0)"/>
<path style="fill-rule:nonzero;fill:rgb(0%,49.411765%,68.235294%);fill-opacity:1;stroke-width:19;stroke-linecap:butt;stroke-linejoin:miter;stroke:rgb(100%,100%,100%);stroke-opacity:1;stroke-miterlimit:10;" d="M 408.482759 159.896552 C 408.482759 174.137931 396.965517 185.689655 382.689655 185.689655 C 368.448276 185.689655 356.896552 174.137931 356.896552 159.896552 C 356.896552 145.655172 368.448276 134.103448 382.689655 134.103448 C 396.965517 134.103448 408.482759 145.655172 408.482759 159.896552 Z M 408.482759 159.896552 " transform="matrix(0.113281,0,0,0.113281,0,0)"/>
<path style="fill-rule:nonzero;fill:rgb(0%,49.411765%,68.235294%);fill-opacity:1;stroke-width:19;stroke-linecap:butt;stroke-linejoin:miter;stroke:rgb(100%,100%,100%);stroke-opacity:1;stroke-miterlimit:10;" d="M 270.896552 305.413793 C 270.896552 319.655172 259.344828 331.206897 245.103448 331.206897 C 230.862069 331.206897 219.310345 319.655172 219.310345 305.413793 C 219.310345 291.137931 230.862069 279.586207 245.103448 279.586207 C 259.344828 279.586207 270.896552 291.137931 270.896552 305.413793 Z M 270.896552 305.413793 " transform="matrix(0.113281,0,0,0.113281,0,0)"/>
<path style="fill-rule:nonzero;fill:rgb(0%,49.411765%,68.235294%);fill-opacity:1;stroke-width:19;stroke-linecap:butt;stroke-linejoin:miter;stroke:rgb(100%,100%,100%);stroke-opacity:1;stroke-miterlimit:10;" d="M 149.793103 256 C 149.793103 270.241379 138.241379 281.793103 124 281.793103 C 109.758621 281.793103 98.206897 270.241379 98.206897 256 C 98.206897 241.758621 109.758621 230.206897 124 230.206897 C 138.241379 230.206897 149.793103 241.758621 149.793103 256 Z M 149.793103 256 " transform="matrix(0.113281,0,0,0.113281,0,0)"/>
</g>
</svg>
