<svg width="528" height="513" viewBox="0 0 528 513" fill="none" xmlns="http://www.w3.org/2000/svg">
<path d="M263.892 0C273.092 0 281.492 5.2 285.492 13.5L354.092 154.8L507.292 177.4C516.292 178.7 523.792 185 526.592 193.7C529.392 202.4 527.092 211.8 520.692 218.2L409.592 328.4L435.792 484C437.292 493 433.592 502.1 426.192 507.5C418.792 512.9 408.892 513.5 400.892 509.2L263.892 436L126.992 509.1C118.892 513.4 109.092 512.8 101.692 507.4C94.2918 502 90.4918 492.9 91.9918 483.9L118.192 328.3L7.09184 218.2C0.591836 211.8 -1.60816 202.3 1.19184 193.7C3.99184 185.1 11.4918 178.8 20.4918 177.4L173.692 154.8L242.292 13.5C246.392 5.2 254.692 0 263.892 0ZM263.892 79L211.392 187.2C207.892 194.3 201.192 199.3 193.292 200.5L74.9918 217.9L160.892 303C166.392 308.5 168.992 316.3 167.692 324L147.392 443.7L252.592 387.5C259.692 383.7 268.192 383.7 275.192 387.5L380.392 443.7L360.192 324.1C358.892 316.4 361.392 308.6 366.992 303.1L452.892 218L334.592 200.5C326.792 199.3 319.992 194.4 316.492 187.2L263.892 79Z" fill="#0D7EAF"/>
</svg>
