<svg width="448" height="512" viewBox="0 0 448 512" fill="none" xmlns="http://www.w3.org/2000/svg">
<g clip-path="url(#clip0_1_4)">
<path d="M152 24C152 10.7 141.3 0 128 0C114.7 0 104 10.7 104 24V64H64C28.7 64 0 92.7 0 128V144V192V448C0 483.3 28.7 512 64 512H384C419.3 512 448 483.3 448 448V192V144V128C448 92.7 419.3 64 384 64H344V24C344 10.7 333.3 0 320 0C306.7 0 296 10.7 296 24V64H152V24ZM48 192H400V448C400 456.8 392.8 464 384 464H64C55.2 464 48 456.8 48 448V192Z" fill="white"/>
</g>
<defs>
<clipPath id="clip0_1_4">
<rect width="448" height="512" fill="white"/>
</clipPath>
</defs>
</svg>
