<svg width="384" height="512" viewBox="0 0 384 512" fill="none" xmlns="http://www.w3.org/2000/svg">
<g clip-path="url(#clip0_1_6)">
<path d="M32 32C32 14.3 46.3 0 64 0H320C337.7 0 352 14.3 352 32C352 49.7 337.7 64 320 64H290.5L301.9 212.2C338.6 232.1 367.6 265.4 381.4 306.9L382.4 309.9C385.7 319.7 384 330.4 378 338.7C372 347 362.3 352 352 352H32C21.7 352 12.1 347.1 6.00001 338.7C-0.0999942 330.3 -1.69999 319.6 1.60001 309.9L2.60001 306.9C16.4 265.4 45.4 232.1 82.1 212.2L93.5 64H64C46.3 64 32 49.7 32 32ZM160 384H224V480C224 497.7 209.7 512 192 512C174.3 512 160 497.7 160 480V384Z" fill="white"/>
</g>
<defs>
<clipPath id="clip0_1_6">
<rect width="384" height="512" fill="white"/>
</clipPath>
</defs>
</svg>
